<?xml version="1.0"?>
<svg xmlns="http://www.w3.org/2000/svg" id="_x33_0" enable-background="new 0 0 64 64" height="512px" viewBox="0 0 64 64" width="512px" class=""><g><path d="m35.098 35.436c-.597.199-1.214.382-1.868.537-.21.05-.48.086-.787.123-1.722.209-2.443.519-2.443 1.904.026.617.329 1.354.68 2.208.104.253.212.522.32.799v-.007c2.692 0 4.981-.61 6.931-1.639-.312-1.676-1.773-2.999-2.833-3.925z" data-original="#000000" class="active-path" data-old_color="#000000" fill="#86EDAD"/><path d="m32 46c0 6.426-4.22 9.665-4.4 9.8l-1.2-1.6c.144-.11 3.6-2.808 3.6-8.2 0-2.184-.622-3.697-1.17-5.032-.404-.985-.787-1.917-.829-2.927-.001-3.163 2.514-3.706 3.888-3.891-.663-.642-1.497-1.15-2.889-1.15-5.719 0-20.428 2.645-24.771 13.402 5.26 2.192 8.462 7.533 8.742 14.587.34.006.682.011 1.029.011 16.53 0 20-7.613 20-14v-4.242c-.755.122-1.545.194-2.367.22.216.876.367 1.866.367 3.022zm-21.287-2.299-1.426-1.402c1.125-1.144 2.463-2.148 4.21-3.163l1.005 1.729c-1.589.923-2.793 1.824-3.789 2.836zm5.709-3.795-.845-1.812c2.208-1.029 4.465-1.645 6.185-2.065l.476 1.943c-1.631.398-3.765.979-5.816 1.934z" data-original="#000000" class="active-path" data-old_color="#000000" fill="#86EDAD"/><path d="m3.052 51.59c-.032.459-.052.928-.052 1.41 0 1.167.167 2.871.481 4.93.206 1.345 1.242 2.364 2.578 2.538.285.037.601.075.932.113-.084-4.356-1.462-7.478-3.939-8.991z" data-original="#000000" class="active-path" data-old_color="#000000" fill="#86EDAD"/><path d="m37.166 34.61c.967.904 2.031 2.108 2.534 3.639.786-.581 1.505-1.237 2.16-1.953-1.062-.966-2.578-2.058-3.57-2.251-.36.198-.736.385-1.124.565z" data-original="#000000" class="active-path" data-old_color="#000000" fill="#86EDAD"/><path d="m59.346 3.277c-2.45.883-8.983 3.587-11.333 7.963 1.083 1.812 1.717 3.779 1.913 5.569.081-.079.161-.157.246-.242l-.032-.016c.018-.035 1.729-3.525.064-5.992l1.658-1.118c.881 1.306 1.115 2.746 1.063 4.041 1.113-1.406 2.25-3.069 3.179-4.929l1.789.895c-.79 1.58-1.709 3.019-2.641 4.291 1.356-.474 2.642-.739 3.748-.739v2c-1.462 0-4.024.682-6.949 2.522-.925.953-1.679 1.625-2.091 1.978-.038.784-.108 1.612-.211 2.47 5.47-.306 11.251-3.899 11.251-8.97 0-3.62-1.109-7.859-1.654-9.723z" data-original="#000000" class="active-path" data-old_color="#000000" fill="#86EDAD"/><path d="m3.603 48.302c-.101.379-.188.768-.264 1.165 2.445 1.175 5.589 4.097 5.655 11.312.623.053 1.284.099 1.977.136-.286-6.097-2.974-10.701-7.368-12.613z" data-original="#000000" class="active-path" data-old_color="#000000" fill="#86EDAD"/><path d="m37 7c-4.906 0-8.274 1.01-9.734 1.555 1.224 3.124 6.159 13.776 16.734 14.414 0-1.931-.005-2.743-.894-4.522-.251-.503-.575-.964-.935-1.4-1.981.192-4.895.915-4.928.923l-.485-1.94c.108-.027 1.79-.444 3.536-.739-3.195-2.363-7.443-3.3-7.501-3.312l.416-1.956c.184.039 2.487.547 5.071 1.77-.159-.797-.28-1.73-.28-2.793h2c0 2.002.473 3.495.731 4.163 1.68 1.105 3.239 2.54 4.164 4.39 1.105 2.211 1.105 3.429 1.105 5.447 0 2.635-1.629 6.713-5.645 9.729 1.117.607 2.144 1.454 2.768 2.014 3.666-5.07 4.877-12.108 4.877-16.743 0-4.436-3.496-11-11-11z" data-original="#000000" class="active-path" data-old_color="#000000" fill="#86EDAD"/></g> </svg>
