<?xml version="1.0"?>
<svg xmlns="http://www.w3.org/2000/svg" height="512px" viewBox="0 0 64 64" width="512px" class=""><g><path d="m33 27.06v-15.06a1 1 0 0 0 -2 0v15.07a6.632 6.632 0 0 1 1-.07 8.262 8.262 0 0 1 1 .06z" data-original="#000000" class="active-path" data-old_color="#000000" fill="#86EDAD"/><path d="m17.91 60h28.18l1.81-19h-31.8z" data-original="#000000" class="active-path" data-old_color="#000000" fill="#86EDAD"/><path d="m14 36h36v3h-36z" data-original="#000000" class="active-path" data-old_color="#000000" fill="#86EDAD"/><path d="m30.91 34h4.23a4.02 4.02 0 0 1 1.78-2.4 5.982 5.982 0 0 0 -4.92-2.6 5.907 5.907 0 0 0 -3.5 1.14 5.992 5.992 0 0 1 2.41 3.86z" data-original="#000000" class="active-path" data-old_color="#000000" fill="#86EDAD"/><path d="m25 31a4 4 0 0 0 -3.86 3h7.72a4 4 0 0 0 -3.86-3z" data-original="#000000" class="active-path" data-old_color="#000000" fill="#86EDAD"/><path d="m37.28 34h3.44a1.979 1.979 0 0 0 -3.44 0z" data-original="#000000" class="active-path" data-old_color="#000000" fill="#86EDAD"/><path d="m24 21h6.94a9.008 9.008 0 0 0 -8.94-8h-6.94a9.008 9.008 0 0 0 8.94 8z" data-original="#000000" class="active-path" data-old_color="#000000" fill="#86EDAD"/><path d="m48.94 4h-6.94a9.008 9.008 0 0 0 -8.94 8h6.94a9.008 9.008 0 0 0 8.94-8z" data-original="#000000" class="active-path" data-old_color="#000000" fill="#86EDAD"/></g> </svg>
